<svg width="99" height="54" viewBox="0 0 99 54" fill="none" xmlns="http://www.w3.org/2000/svg">
<path d="M93.3386 2.77601C88.0833 -0.968776 80.7865 0.255181 77.0417 5.49997L71.3438 13.4948C71.7656 9.44789 70.0573 5.30727 66.5156 2.77601C61.2604 -0.968776 53.9636 0.255181 50.224 5.49997L44.5261 13.4948C44.9427 9.44789 43.2396 5.30727 39.6979 2.77601C34.4427 -0.968776 27.1459 0.255181 23.4011 5.49997L2.43751 34.9062C-1.30728 40.1614 -0.0833192 47.4583 5.16147 51.2031C10.4115 54.9479 17.7136 53.7239 21.4583 48.4791L27.1563 40.4843C26 52.2968 41.1875 58.2083 48.2813 48.4791L53.9792 40.4843C52.8177 52.2968 68.0104 58.2083 75.099 48.4791L96.0625 19.0833C99.8073 13.8281 98.5833 6.53122 93.3386 2.78643V2.77601Z" fill="#FF090D"/>
</svg>
